<svg viewBox="0 0 16 16" xmlns="http://www.w3.org/2000/svg">
<path d="M15.7373 7.99757L15.0829 8.67616C11.7434 12.1515 7.48283 14.6041 2.80061 15.7528L1.88452 15.9806L1.92814 15.9031C2.75214 14.4829 4.04144 13.4165 5.56341 12.801C7.56522 11.9915 9.44102 10.9058 11.1472 9.58255C12.4413 8.57922 14.0118 7.99757 15.65 7.99757H15.7373Z" fill="#136E4B"/>
<path d="M15.7373 7.99758H15.6549C14.0166 7.99758 12.4413 7.41594 11.1472 6.40776C9.44102 5.07967 7.55553 3.98909 5.54887 3.1748C4.0366 2.55922 2.75214 1.49773 1.93299 0.0872463L1.88452 0L2.80061 0.242351C7.48283 1.39109 11.7434 3.84368 15.0829 7.31899L15.7373 7.99758Z" fill="#FED14A"/>
<path d="M1.88448 0L1.62274 0.906392C0.289815 5.54014 0.289815 10.4599 1.62274 15.0936L1.88448 16C2.71817 14.5556 3.03323 12.8834 2.80542 11.2354C2.50975 9.08816 2.50975 6.907 2.80542 4.75977C3.03807 3.11663 2.71817 1.43956 1.88448 0Z" fill="#17AA71"/>
<path d="M6.28057 7.19297C7.34207 7.19297 8.08851 7.89579 8.08851 8.86035C8.08851 9.8249 7.32268 10.5859 6.3145 10.5859C5.30632 10.5859 4.54049 9.87337 4.53564 8.89912H5.63592C5.64076 9.28689 5.92189 9.56801 6.3145 9.56801C6.70711 9.56801 6.99308 9.2675 6.99308 8.86035C6.99308 8.42896 6.68287 8.1236 6.24179 8.1236H4.81677L4.71498 7.98788L5.00096 5.42381H7.74437V6.39806H5.86373L5.77163 7.19782H6.28542L6.28057 7.19297Z" fill="#17AA71"/>
</svg>
